<svg width="62" height="62" viewBox="0 0 62 62" fill="none" xmlns="http://www.w3.org/2000/svg">
<g clip-path="url(#clip0_3:8)">
<path d="M55.75 25.1452H51.7212L41.5463 9.62504C41.1415 9.00854 40.5122 8.58065 39.7969 8.43552C39.0816 8.29038 38.3388 8.43988 37.732 8.85113C37.1252 9.26238 36.704 9.90169 36.5612 10.6284C36.4183 11.3552 36.5655 12.1098 36.9703 12.7263L45.113 25.1452H16.887L25.038 12.7263C25.4428 12.1098 25.5899 11.3552 25.4471 10.6284C25.3042 9.90169 24.8831 9.26238 24.2763 8.85113C23.6694 8.43988 22.9267 8.29038 22.2114 8.43552C21.4961 8.58065 20.8668 9.00854 20.462 9.62504L10.2788 25.1452H6.25001C5.52066 25.1452 4.82119 25.4396 4.30546 25.9636C3.78974 26.4875 3.50001 27.1982 3.50001 27.9392C3.50001 28.6801 3.78974 29.3908 4.30546 29.9148C4.82119 30.4387 5.52066 30.7331 6.25001 30.7331H9.00001V53.0844C9.00001 54.5664 9.57947 55.9877 10.6109 57.0356C11.6424 58.0835 13.0413 58.6722 14.5 58.6722H47.5C48.9587 58.6722 50.3576 58.0835 51.3891 57.0356C52.4205 55.9877 53 54.5664 53 53.0844V30.7331H55.75C56.4793 30.7331 57.1788 30.4387 57.6945 29.9148C58.2103 29.3908 58.5 28.6801 58.5 27.9392C58.5 27.1982 58.2103 26.4875 57.6945 25.9636C57.1788 25.4396 56.4793 25.1452 55.75 25.1452ZM22.75 48.8935C22.75 49.6345 22.4603 50.3452 21.9445 50.8691C21.4288 51.3931 20.7294 51.6874 20 51.6874C19.2707 51.6874 18.5712 51.3931 18.0555 50.8691C17.5397 50.3452 17.25 49.6345 17.25 48.8935V37.7179C17.25 36.9769 17.5397 36.2662 18.0555 35.7423C18.5712 35.2183 19.2707 34.9239 20 34.9239C20.7294 34.9239 21.4288 35.2183 21.9445 35.7423C22.4603 36.2662 22.75 36.9769 22.75 37.7179V48.8935ZM33.75 48.8935C33.75 49.6345 33.4603 50.3452 32.9445 50.8691C32.4288 51.3931 31.7293 51.6874 31 51.6874C30.2707 51.6874 29.5712 51.3931 29.0555 50.8691C28.5397 50.3452 28.25 49.6345 28.25 48.8935V37.7179C28.25 36.9769 28.5397 36.2662 29.0555 35.7423C29.5712 35.2183 30.2707 34.9239 31 34.9239C31.7293 34.9239 32.4288 35.2183 32.9445 35.7423C33.4603 36.2662 33.75 36.9769 33.75 37.7179V48.8935ZM44.75 48.8935C44.75 49.6345 44.4603 50.3452 43.9445 50.8691C43.4288 51.3931 42.7293 51.6874 42 51.6874C41.2707 51.6874 40.5712 51.3931 40.0555 50.8691C39.5397 50.3452 39.25 49.6345 39.25 48.8935V37.7179C39.25 36.9769 39.5397 36.2662 40.0555 35.7423C40.5712 35.2183 41.2707 34.9239 42 34.9239C42.7293 34.9239 43.4288 35.2183 43.9445 35.7423C44.4603 36.2662 44.75 36.9769 44.75 37.7179V48.8935Z" fill="#2A5138"/>
</g>
<defs>
<clipPath id="clip0_3:8">
<rect width="62" height="62" fill="white"/>
</clipPath>
</defs>
</svg>
