<svg width="132" height="73" viewBox="0 0 132 73" fill="none" xmlns="http://www.w3.org/2000/svg">
<path d="M58.3727 53.8312C66.8591 57.3901 75.5814 55.4292 85.5574 58.2472C93.5382 60.5016 102.021 67.4209 105.265 70.5988C113.687 69.1601 130.355 65.8787 129.654 64.2621C128.777 62.2414 122.206 53.6171 114.848 44.2595C107.49 34.902 92.2974 27.8702 87.1594 26.6917C82.0213 25.5132 72.8692 18.0013 63.1945 14.5384C53.5198 11.0755 52.4123 13.8387 55.0389 20.4526C57.1402 25.7438 69.049 31.5049 74.7407 33.724M58.3727 53.8312C49.8862 50.2723 32.5527 38.0048 30.9976 33.8708C30.2745 31.9483 29.0585 30.1071 27.9189 28.0862M58.3727 53.8312C55.4692 53.9023 48.6015 52.889 44.358 48.2673C41.367 45.0098 40.2352 45.963 35.7738 44.5248M63.0393 37.1667C61.4755 34.302 48.2447 29.8883 41.8247 28.0395C42.7708 29.5694 44.0366 31.6378 41.5303 27.6726C39.024 23.7073 33.566 15.3123 31.1503 11.6104C26.8791 -0.516994 18.3504 2.08713 20.1185 4.01284C21.8866 5.93855 24.7011 14.0236 25.1549 20.001C25.3977 23.1987 26.6078 25.7613 27.9189 28.0862M63.0393 37.1667C64.6031 40.0313 65.2504 41.8504 65.3785 42.4018M63.0393 37.1667C64.4326 36.0275 68.7235 33.7442 74.7407 33.724M74.7407 33.724C78.43 38.3476 85.7239 43.5907 88.9097 45.6343M27.9189 28.0862C26.9818 27.6907 23.8181 24.4574 18.6598 14.6877C12.2119 2.47565 2.10667 4.07325 4.75604 7.37575C5.53373 8.34516 7.05177 10.7783 8.92756 13.8925M35.7738 44.5248C32.3229 43.4123 25.4067 40.061 23.3539 37.2998C20.0287 32.8271 13.442 21.3875 8.92756 13.8925M35.7738 44.5248C33.9967 44.868 28.9534 43.3335 26.1879 42.5333C22.7311 41.5331 22.4474 39.6024 16.3412 35.2997C10.2349 30.997 2.70667 17.5927 2.42365 15.57C2.14064 13.5474 3.26748 10.9681 8.92756 13.8925" stroke="#2A5138" stroke-width="3"/>
</svg>
