<svg width="151" height="88" viewBox="0 0 151 88" fill="none" xmlns="http://www.w3.org/2000/svg">
<path d="M67.3727 62.8312C75.8592 66.3901 84.5814 64.4292 94.5574 67.2472C102.538 69.5016 111.021 76.4209 114.265 79.5988C122.687 78.1601 139.356 74.8787 138.654 73.2621C137.777 71.2414 131.206 62.6171 123.848 53.2595C116.49 43.902 101.297 36.8702 96.1594 35.6917C91.0214 34.5132 81.8693 27.0013 72.1946 23.5384C62.5199 20.0755 61.4123 22.8387 64.039 29.4526C66.1403 34.7438 78.049 40.5049 83.7407 42.724M67.3727 62.8312C58.8862 59.2723 41.5527 47.0048 39.9977 42.8708C39.2745 40.9483 38.0586 39.1071 36.9189 37.0862M67.3727 62.8312C64.4693 62.9023 57.6015 61.889 53.358 57.2673C50.367 54.0098 49.2352 54.963 44.7738 53.5248M72.0393 46.1667C70.4756 43.302 57.2447 38.8883 50.8247 37.0395C51.7709 38.5694 53.0366 40.6378 50.5303 36.6726C48.0241 32.7073 42.5661 24.3123 40.1504 20.6104C35.8791 8.48301 27.3504 11.0871 29.1185 13.0128C30.8867 14.9385 33.7012 23.0236 34.155 29.001C34.3978 32.1987 35.6079 34.7613 36.9189 37.0862M72.0393 46.1667C73.6031 49.0313 74.2504 50.8504 74.3786 51.4018M72.0393 46.1667C73.4326 45.0275 77.7235 42.7442 83.7407 42.724M83.7407 42.724C87.43 47.3476 94.724 52.5907 97.9098 54.6343M36.9189 37.0862C35.9818 36.6907 32.8181 33.4574 27.6598 23.6877C21.212 11.4757 11.1067 13.0733 13.7561 16.3757C14.5338 17.3452 16.0518 19.7783 17.9276 22.8925M44.7738 53.5248C41.323 52.4123 34.4068 49.061 32.3539 46.2998C29.0287 41.8271 22.4421 30.3875 17.9276 22.8925M44.7738 53.5248C42.9967 53.868 37.9535 52.3335 35.188 51.5333C31.7311 50.5331 31.4475 48.6024 25.3412 44.2997C19.235 39.997 11.7067 26.5927 11.4237 24.57C11.1407 22.5474 12.2675 19.9681 17.9276 22.8925" stroke="#F0A04B" stroke-width="3"/>
</svg>
