<svg width="66" height="68" viewBox="0 0 66 68" fill="none" xmlns="http://www.w3.org/2000/svg">
<path d="M57.75 25.1984H53.7212L43.5462 9.67822C43.1415 9.06172 42.5122 8.63383 41.7969 8.48869C41.0816 8.34356 40.3388 8.49306 39.732 8.90431C39.1252 9.31556 38.704 9.95487 38.5612 10.6816C38.4183 11.4083 38.5655 12.163 38.9702 12.7795L47.113 25.1984H18.887L27.038 12.7795C27.4428 12.163 27.5899 11.4083 27.4471 10.6816C27.3042 9.95487 26.8831 9.31556 26.2762 8.90431C25.6694 8.49306 24.9267 8.34356 24.2114 8.48869C23.496 8.63383 22.8668 9.06172 22.462 9.67822L12.2787 25.1984H8.25C7.52065 25.1984 6.82118 25.4928 6.30546 26.0167C5.78973 26.5407 5.5 27.2513 5.5 27.9923C5.5 28.7333 5.78973 29.444 6.30546 29.9679C6.82118 30.4919 7.52065 30.7863 8.25 30.7863H11V53.1376C11 54.6196 11.5795 56.0408 12.6109 57.0888C13.6424 58.1367 15.0413 58.7254 16.5 58.7254H49.5C50.9587 58.7254 52.3576 58.1367 53.3891 57.0888C54.4205 56.0408 55 54.6196 55 53.1376V30.7863H57.75C58.4793 30.7863 59.1788 30.4919 59.6945 29.9679C60.2103 29.444 60.5 28.7333 60.5 27.9923C60.5 27.2513 60.2103 26.5407 59.6945 26.0167C59.1788 25.4928 58.4793 25.1984 57.75 25.1984ZM24.75 48.9467C24.75 49.6877 24.4603 50.3983 23.9445 50.9223C23.4288 51.4463 22.7293 51.7406 22 51.7406C21.2707 51.7406 20.5712 51.4463 20.0555 50.9223C19.5397 50.3983 19.25 49.6877 19.25 48.9467V37.771C19.25 37.03 19.5397 36.3194 20.0555 35.7954C20.5712 35.2715 21.2707 34.9771 22 34.9771C22.7293 34.9771 23.4288 35.2715 23.9445 35.7954C24.4603 36.3194 24.75 37.03 24.75 37.771V48.9467ZM35.75 48.9467C35.75 49.6877 35.4603 50.3983 34.9445 50.9223C34.4288 51.4463 33.7293 51.7406 33 51.7406C32.2707 51.7406 31.5712 51.4463 31.0555 50.9223C30.5397 50.3983 30.25 49.6877 30.25 48.9467V37.771C30.25 37.03 30.5397 36.3194 31.0555 35.7954C31.5712 35.2715 32.2707 34.9771 33 34.9771C33.7293 34.9771 34.4288 35.2715 34.9445 35.7954C35.4603 36.3194 35.75 37.03 35.75 37.771V48.9467ZM46.75 48.9467C46.75 49.6877 46.4603 50.3983 45.9445 50.9223C45.4288 51.4463 44.7293 51.7406 44 51.7406C43.2706 51.7406 42.5712 51.4463 42.0555 50.9223C41.5397 50.3983 41.25 49.6877 41.25 48.9467V37.771C41.25 37.03 41.5397 36.3194 42.0555 35.7954C42.5712 35.2715 43.2706 34.9771 44 34.9771C44.7293 34.9771 45.4288 35.2715 45.9445 35.7954C46.4603 36.3194 46.75 37.03 46.75 37.771V48.9467Z" fill="#2A5138"/>
</svg>
